<?xml version="1.0" ?><!DOCTYPE svg  PUBLIC '-//W3C//DTD SVG 1.1//EN'  'http://www.w3.org/Graphics/SVG/1.1/DTD/svg11.dtd'><svg enable-background="new 0 0 128 128" height="128px" version="1.1" viewBox="0 0 128 128" width="128px" xml:space="preserve" xmlns="http://www.w3.org/2000/svg" xmlns:xlink="http://www.w3.org/1999/xlink"><g id="Layer_2"/><g id="Layer_1"><g><path d="M58,62H25c0,0,0-17.271,0-21.448s3.605-4.357,3.605-4.357L58,32.688V62z" fill="#FE6D4B"/></g><g><path d="M100,62H63V32.125l32.438-3.616c0,0,4.562-0.363,4.562,4.085S100,62,100,62z" fill="#9FD661"/></g><g><path d="M58,94.167l-29.394-3.563c0,0-3.606-0.062-3.606-4.167C25,81.875,25,67,25,67h33V94.167z" fill="#48C0EB"/></g><g><path d="M95.481,99.03L63,94.75V67h37c0,0,0,23.251,0,27.959S95.481,99.03,95.481,99.03z" fill="#FFCF47"/></g></g></svg>